<?xml version="1.0" standalone="no"?>
<!DOCTYPE svg PUBLIC "-//W3C//DTD SVG 20010904//EN"
 "http://www.w3.org/TR/2001/REC-SVG-20010904/DTD/svg10.dtd">
<svg version="1.0" xmlns="http://www.w3.org/2000/svg"
 width="167.000000pt" height="51.000000pt" viewBox="0 0 167.000000 51.000000"
 preserveAspectRatio="xMidYMid meet">

<g transform="translate(0.000000,51.000000) scale(0.100000,-0.100000)"
fill="#000000" stroke="none">
<path d="M148 408 c-58 -56 -90 -105 -83 -127 7 -22 74 -42 156 -45 l51 -3 -5
40 c-3 22 -9 43 -14 48 -4 4 -31 2 -58 -5 l-50 -12 43 -29 c23 -15 40 -30 38
-33 -3 -2 -25 10 -49 28 -37 26 -48 30 -65 21 -11 -6 -27 -11 -34 -11 -7 1 -1
7 14 16 18 9 25 20 22 29 -8 20 11 42 58 66 22 11 38 25 36 31 -8 23 -26 18
-60 -14z"/>
<path d="M248 413 c-16 -4 -16 -7 -1 -39 23 -47 45 -45 41 3 -3 37 -10 44 -40
36z"/>
<path d="M175 379 c-53 -28 -61 -37 -48 -50 8 -8 26 -8 67 1 l56 11 -15 30
c-9 16 -17 29 -18 29 -1 0 -20 -9 -42 -21z"/>
<path d="M270 316 c0 -8 5 -18 10 -21 6 -3 10 3 10 14 0 12 -4 21 -10 21 -5 0
-10 -6 -10 -14z"/>
<path d="M300 301 c0 -16 -5 -42 -12 -57 -12 -26 -14 -26 -78 -21 -36 3 -87
13 -114 22 -60 21 -75 10 -51 -35 24 -46 137 -160 159 -160 30 0 73 56 96 124
25 75 31 147 13 153 -9 3 -13 -6 -13 -26z"/>
<path d="M410 261 c0 -40 4 -53 22 -65 53 -38 98 -7 98 67 0 35 -4 47 -15 47
-10 0 -15 -10 -15 -34 0 -44 -9 -66 -26 -66 -19 0 -36 36 -32 68 2 19 -2 28
-14 30 -15 3 -18 -4 -18 -47z"/>
<path d="M550 244 c0 -48 3 -65 13 -62 6 3 13 19 15 37 l3 33 33 -38 c42 -48
56 -39 56 37 0 52 -2 59 -20 59 -16 0 -20 -7 -20 -32 l0 -33 -26 33 c-41 51
-54 43 -54 -34z"/>
<path d="M682 248 c2 -48 7 -63 18 -63 12 0 15 13 15 60 0 50 -3 60 -18 63
-16 3 -18 -3 -15 -60z"/>
<path d="M751 296 c-20 -24 -9 -49 27 -60 41 -11 42 -28 0 -24 -17 2 -33 -2
-35 -9 -6 -16 52 -26 76 -13 14 7 21 7 21 0 0 -16 30 -12 36 5 8 19 53 19 60
0 7 -17 34 -21 34 -5 0 25 -50 120 -64 120 -9 0 -25 -21 -37 -50 -21 -48 -22
-50 -33 -28 -6 12 -22 25 -34 28 -28 6 -25 25 3 25 36 0 31 20 -6 23 -23 2
-40 -2 -48 -12z m169 -58 c0 -5 -7 -8 -15 -8 -17 0 -18 2 -9 25 5 13 8 14 15
3 5 -7 9 -16 9 -20z"/>
<path d="M987 292 c-23 -25 -21 -68 3 -92 38 -38 100 -19 100 30 0 27 -3 30
-30 30 -33 0 -39 -14 -12 -29 16 -9 16 -10 -1 -16 -21 -9 -47 11 -47 36 0 21
14 32 47 33 37 2 32 21 -8 24 -24 2 -40 -3 -52 -16z"/>
<path d="M1100 245 c0 -51 3 -65 15 -65 8 0 15 9 15 20 0 11 6 20 13 20 7 0
18 -9 25 -20 7 -11 19 -20 27 -20 18 0 19 12 3 28 -9 9 -9 15 0 24 7 7 12 21
12 33 0 32 -20 45 -67 45 l-43 0 0 -65z m78 23 c-7 -20 -48 -23 -48 -4 0 11 9
16 26 16 16 0 24 -5 22 -12z"/>
<path d="M1251 268 c-32 -74 -34 -88 -16 -88 8 0 18 7 21 15 4 8 17 15 30 15
14 0 27 -7 30 -15 7 -17 34 -21 34 -5 0 5 -11 34 -24 65 -30 67 -50 71 -75 13z
m49 -30 c0 -5 -7 -8 -15 -8 -17 0 -18 2 -9 25 5 13 8 14 15 3 5 -7 9 -16 9
-20z"/>
<path d="M1362 248 l3 -63 39 1 c28 1 45 8 57 23 l18 21 25 -25 c32 -32 60
-32 91 0 29 28 31 51 9 83 -26 37 -114 23 -114 -19 0 -5 -4 -9 -10 -9 -5 0
-10 7 -10 15 0 20 -32 35 -75 35 l-36 0 3 -62z m76 20 c16 -16 15 -23 -4 -42
-27 -27 -44 -20 -44 19 0 27 4 35 18 35 10 0 23 -5 30 -12z m140 -17 c5 -30
-10 -45 -37 -36 -21 6 -29 43 -14 59 15 15 48 1 51 -23z"/>
</g>
</svg>
